<mxfile host="app.diagrams.net" modified="2023-01-10T15:58:40.048Z" agent="5.0 (Windows NT 10.0; Win64; x64) AppleWebKit/537.36 (KHTML, like Gecko) Chrome/108.0.0.0 Safari/537.36" etag="8q0VIlEXCUrIqefMJnLW" version="20.8.3" type="github">
  <diagram id="A2DiS_3SIA8T0WvpOrg7" name="Pagina-1">
    <mxGraphModel dx="1050" dy="541" grid="1" gridSize="10" guides="1" tooltips="1" connect="1" arrows="1" fold="1" page="1" pageScale="1" pageWidth="827" pageHeight="1169" math="0" shadow="0">
      <root>
        <mxCell id="0" />
        <mxCell id="1" parent="0" />
        <mxCell id="smrWkmQxFFEiix12zCdJ-4" value="&lt;p style=&quot;margin: 4px 0px 0px; text-align: center; line-height: 100%;&quot;&gt;&amp;lt;&amp;lt;boundary&amp;gt;&amp;gt;&lt;/p&gt;&lt;p style=&quot;margin: 4px 0px 0px; text-align: center; line-height: 100%;&quot;&gt;&lt;b&gt;FrameHomeAdmin&lt;/b&gt;&lt;/p&gt;&lt;hr size=&quot;1&quot;&gt;&lt;p style=&quot;border-color: var(--border-color); margin: 0px 0px 0px 4px;&quot;&gt;-nomeRistoranteEditText: EditText&lt;/p&gt;&lt;p style=&quot;border-color: var(--border-color); margin: 0px 0px 0px 4px;&quot;&gt;&lt;span style=&quot;border-color: var(--border-color); background-color: initial;&quot;&gt;-cittàRistoranteEditText: EditText&lt;/span&gt;&lt;/p&gt;&lt;p style=&quot;border-color: var(--border-color); margin: 0px 0px 0px 4px;&quot;&gt;&lt;span style=&quot;border-color: var(--border-color); background-color: initial;&quot;&gt;-indirizzoRistoranteEditText: EditText&lt;/span&gt;&lt;/p&gt;&lt;p style=&quot;border-color: var(--border-color); margin: 0px 0px 0px 4px;&quot;&gt;&lt;span style=&quot;border-color: var(--border-color); background-color: initial;&quot;&gt;-telefonoRistoranteEditText: EditText&lt;/span&gt;&lt;/p&gt;&lt;p style=&quot;border-color: var(--border-color); margin: 0px 0px 0px 4px;&quot;&gt;-capienzaRistoranteEditText: EditText&lt;/p&gt;&lt;p style=&quot;border-color: var(--border-color); margin: 0px 0px 0px 4px;&quot;&gt;-modificaButton: Button&lt;/p&gt;&lt;p style=&quot;border-color: var(--border-color); margin: 0px 0px 0px 4px;&quot;&gt;-confermaButton: Button&lt;/p&gt;&lt;p style=&quot;margin:0px;margin-left:4px;&quot;&gt;-creaAvvisoButton: Button&lt;/p&gt;&lt;p style=&quot;margin:0px;margin-left:4px;&quot;&gt;-adminNavigationBar: NavigationBar&lt;/p&gt;&lt;hr size=&quot;1&quot;&gt;&lt;p style=&quot;margin:0px;margin-left:4px;&quot;&gt;&lt;span style=&quot;background-color: initial;&quot;&gt;+abilitaConfermaButton()&lt;/span&gt;&lt;br&gt;&lt;/p&gt;&lt;p style=&quot;border-color: var(--border-color); margin: 0px 0px 0px 4px;&quot;&gt;+disabilitaConfermaButton()&lt;br style=&quot;border-color: var(--border-color);&quot;&gt;&lt;/p&gt;&lt;p style=&quot;border-color: var(--border-color); margin: 0px 0px 0px 4px;&quot;&gt;+abilitaModificaButton()&lt;/p&gt;&lt;p style=&quot;border-color: var(--border-color); margin: 0px 0px 0px 4px;&quot;&gt;+disabilitaModificaButton()&lt;/p&gt;" style="verticalAlign=top;align=left;overflow=fill;fontSize=12;fontFamily=Helvetica;html=1;spacing=2;" parent="1" vertex="1">
          <mxGeometry x="460" y="560" width="280" height="250" as="geometry" />
        </mxCell>
        <mxCell id="smrWkmQxFFEiix12zCdJ-5" value="&lt;p style=&quot;margin: 4px 0px 0px; text-align: center; line-height: 100%;&quot;&gt;&amp;lt;&amp;lt;boundary&amp;gt;&amp;gt;&lt;/p&gt;&lt;p style=&quot;margin: 4px 0px 0px; text-align: center; line-height: 100%;&quot;&gt;&lt;b&gt;PopupInserisceAvviso&lt;/b&gt;&lt;/p&gt;&lt;hr style=&quot;line-height: 100%;&quot; size=&quot;1&quot;&gt;&lt;p style=&quot;margin: 0px 0px 0px 4px; line-height: 100%;&quot;&gt;&lt;span style=&quot;background-color: initial;&quot;&gt;-confermaButton: Button&lt;/span&gt;&lt;br&gt;&lt;/p&gt;&lt;p style=&quot;margin: 0px 0px 0px 4px; line-height: 100%;&quot;&gt;-annullaButton: Button&lt;/p&gt;&lt;hr style=&quot;line-height: 100%;&quot; size=&quot;1&quot;&gt;&lt;p style=&quot;margin: 0px 0px 0px 4px; line-height: 100%;&quot;&gt;&lt;br&gt;&lt;/p&gt;" style="verticalAlign=top;align=left;overflow=fill;fontSize=12;fontFamily=Helvetica;html=1;" parent="1" vertex="1">
          <mxGeometry x="126" y="880" width="240" height="90" as="geometry" />
        </mxCell>
        <mxCell id="smrWkmQxFFEiix12zCdJ-6" value="&lt;p style=&quot;margin: 4px 0px 0px; text-align: center; line-height: 100%;&quot;&gt;&amp;lt;&amp;lt;boundary&amp;gt;&amp;gt;&lt;/p&gt;&lt;p style=&quot;margin: 4px 0px 0px; text-align: center; line-height: 100%;&quot;&gt;&lt;b&gt;PopupConferma&lt;/b&gt;&lt;/p&gt;&lt;hr style=&quot;line-height: 100%;&quot; size=&quot;1&quot;&gt;&lt;p style=&quot;margin: 0px 0px 0px 4px; line-height: 100%;&quot;&gt;&lt;span style=&quot;background-color: initial;&quot;&gt;-confermaButton: Button&lt;/span&gt;&lt;br&gt;&lt;/p&gt;&lt;p style=&quot;margin: 0px 0px 0px 4px; line-height: 100%;&quot;&gt;-annullaButton: Button&lt;/p&gt;&lt;hr style=&quot;line-height: 100%;&quot; size=&quot;1&quot;&gt;&lt;p style=&quot;margin: 0px 0px 0px 4px; line-height: 100%;&quot;&gt;&lt;br&gt;&lt;/p&gt;" style="verticalAlign=top;align=left;overflow=fill;fontSize=12;fontFamily=Helvetica;html=1;" parent="1" vertex="1">
          <mxGeometry x="460" y="880" width="240" height="90" as="geometry" />
        </mxCell>
        <mxCell id="smrWkmQxFFEiix12zCdJ-7" value="&lt;p style=&quot;margin: 4px 0px 0px; text-align: center; line-height: 100%;&quot;&gt;&amp;lt;&amp;lt;control&amp;gt;&amp;gt;&lt;/p&gt;&lt;p style=&quot;margin: 4px 0px 0px; text-align: center; line-height: 100%;&quot;&gt;&lt;b&gt;Controller&lt;/b&gt;&lt;/p&gt;&lt;hr size=&quot;1&quot;&gt;&lt;p style=&quot;margin: 0px 0px 0px 4px; line-height: 100%;&quot;&gt;&lt;br&gt;&lt;/p&gt;&lt;hr size=&quot;1&quot;&gt;&lt;p style=&quot;margin: 0px 0px 0px 4px; line-height: 100%;&quot;&gt;&lt;span style=&quot;background-color: initial;&quot;&gt;+mostraPopupInserisceAvviso()&lt;/span&gt;&lt;br&gt;&lt;/p&gt;&lt;p style=&quot;margin: 0px 0px 0px 4px; line-height: 100%;&quot;&gt;+mostraPopupConferma()&lt;/p&gt;&lt;p style=&quot;margin: 0px 0px 0px 4px; line-height: 100%;&quot;&gt;&lt;br&gt;&lt;/p&gt;" style="verticalAlign=top;align=left;overflow=fill;fontSize=12;fontFamily=Helvetica;html=1;" parent="1" vertex="1">
          <mxGeometry x="277" y="360" width="270" height="140" as="geometry" />
        </mxCell>
        <mxCell id="smrWkmQxFFEiix12zCdJ-11" value="" style="endArrow=none;html=1;rounded=0;exitX=0.5;exitY=0;exitDx=0;exitDy=0;entryX=1;entryY=0.5;entryDx=0;entryDy=0;" parent="1" source="smrWkmQxFFEiix12zCdJ-4" target="smrWkmQxFFEiix12zCdJ-7" edge="1">
          <mxGeometry width="50" height="50" relative="1" as="geometry">
            <mxPoint x="392" y="640" as="sourcePoint" />
            <mxPoint x="442" y="590" as="targetPoint" />
            <Array as="points">
              <mxPoint x="600" y="430" />
            </Array>
          </mxGeometry>
        </mxCell>
        <mxCell id="NKhzPwcLgmOPMQ6DGNoW-3" value="0..1" style="edgeLabel;html=1;align=center;verticalAlign=middle;resizable=0;points=[];" vertex="1" connectable="0" parent="smrWkmQxFFEiix12zCdJ-11">
          <mxGeometry x="-0.1803" y="-2" relative="1" as="geometry">
            <mxPoint x="8" y="65" as="offset" />
          </mxGeometry>
        </mxCell>
        <mxCell id="NKhzPwcLgmOPMQ6DGNoW-4" value="1" style="edgeLabel;html=1;align=center;verticalAlign=middle;resizable=0;points=[];" vertex="1" connectable="0" parent="smrWkmQxFFEiix12zCdJ-11">
          <mxGeometry x="0.2131" y="1" relative="1" as="geometry">
            <mxPoint x="-49" y="-29" as="offset" />
          </mxGeometry>
        </mxCell>
        <mxCell id="Qny5rL5tvqpMr087GdY6-6" value="&lt;p style=&quot;margin: 4px 0px 0px; text-align: center; line-height: 100%;&quot;&gt;&amp;lt;&amp;lt;boundary&amp;gt;&amp;gt;&lt;/p&gt;&lt;p style=&quot;margin: 4px 0px 0px; text-align: center; line-height: 100%;&quot;&gt;&lt;b&gt;FrameHomeSupervisore&lt;/b&gt;&lt;/p&gt;&lt;hr size=&quot;1&quot;&gt;&lt;p style=&quot;border-color: var(--border-color); margin: 0px 0px 0px 4px;&quot;&gt;-nomeRistoranteEditText: EditText&lt;/p&gt;&lt;p style=&quot;border-color: var(--border-color); margin: 0px 0px 0px 4px;&quot;&gt;&lt;span style=&quot;border-color: var(--border-color); background-color: initial;&quot;&gt;-cittàRistoranteEditText: EditText&lt;/span&gt;&lt;/p&gt;&lt;p style=&quot;border-color: var(--border-color); margin: 0px 0px 0px 4px;&quot;&gt;&lt;span style=&quot;border-color: var(--border-color); background-color: initial;&quot;&gt;-indirizzoRistoranteEditText: EditText&lt;/span&gt;&lt;/p&gt;&lt;p style=&quot;border-color: var(--border-color); margin: 0px 0px 0px 4px;&quot;&gt;&lt;span style=&quot;border-color: var(--border-color); background-color: initial;&quot;&gt;-telefonoRistoranteEditText: EditText&lt;/span&gt;&lt;/p&gt;&lt;p style=&quot;border-color: var(--border-color); margin: 0px 0px 0px 4px;&quot;&gt;-capienzaRistoranteEditText: EditText&lt;/p&gt;&lt;p style=&quot;margin:0px;margin-left:4px;&quot;&gt;-creaAvvisoButton: Button&lt;/p&gt;&lt;p style=&quot;margin:0px;margin-left:4px;&quot;&gt;-supervisoreNavigationBar: NavigationBar&lt;/p&gt;&lt;hr size=&quot;1&quot;&gt;&lt;p style=&quot;margin:0px;margin-left:4px;&quot;&gt;&lt;br&gt;&lt;/p&gt;" style="verticalAlign=top;align=left;overflow=fill;fontSize=12;fontFamily=Helvetica;html=1;spacing=2;" parent="1" vertex="1">
          <mxGeometry x="86" y="560" width="280" height="170" as="geometry" />
        </mxCell>
        <mxCell id="Qny5rL5tvqpMr087GdY6-7" value="" style="endArrow=none;html=1;rounded=0;entryX=0;entryY=0.5;entryDx=0;entryDy=0;exitX=0.5;exitY=0;exitDx=0;exitDy=0;" parent="1" source="Qny5rL5tvqpMr087GdY6-6" target="smrWkmQxFFEiix12zCdJ-7" edge="1">
          <mxGeometry width="50" height="50" relative="1" as="geometry">
            <mxPoint x="210" y="570" as="sourcePoint" />
            <mxPoint x="260" y="520" as="targetPoint" />
            <Array as="points">
              <mxPoint x="226" y="430" />
            </Array>
          </mxGeometry>
        </mxCell>
        <mxCell id="NKhzPwcLgmOPMQ6DGNoW-1" value="0..1" style="edgeLabel;html=1;align=center;verticalAlign=middle;resizable=0;points=[];" vertex="1" connectable="0" parent="Qny5rL5tvqpMr087GdY6-7">
          <mxGeometry x="0.2486" y="-1" relative="1" as="geometry">
            <mxPoint x="-17" y="103" as="offset" />
          </mxGeometry>
        </mxCell>
        <mxCell id="NKhzPwcLgmOPMQ6DGNoW-2" value="1" style="edgeLabel;html=1;align=center;verticalAlign=middle;resizable=0;points=[];" vertex="1" connectable="0" parent="Qny5rL5tvqpMr087GdY6-7">
          <mxGeometry x="0.0939" relative="1" as="geometry">
            <mxPoint x="44" y="-41" as="offset" />
          </mxGeometry>
        </mxCell>
        <mxCell id="Qny5rL5tvqpMr087GdY6-8" value="" style="endArrow=none;html=1;rounded=0;entryX=0.46;entryY=1.001;entryDx=0;entryDy=0;entryPerimeter=0;exitX=0.5;exitY=0;exitDx=0;exitDy=0;" parent="1" source="smrWkmQxFFEiix12zCdJ-5" target="smrWkmQxFFEiix12zCdJ-7" edge="1">
          <mxGeometry width="50" height="50" relative="1" as="geometry">
            <mxPoint x="340" y="940" as="sourcePoint" />
            <mxPoint x="400" y="530" as="targetPoint" />
            <Array as="points">
              <mxPoint x="246" y="850" />
              <mxPoint x="320" y="850" />
              <mxPoint x="401" y="850" />
            </Array>
          </mxGeometry>
        </mxCell>
        <mxCell id="NKhzPwcLgmOPMQ6DGNoW-5" value="0..1" style="edgeLabel;html=1;align=center;verticalAlign=middle;resizable=0;points=[];" vertex="1" connectable="0" parent="Qny5rL5tvqpMr087GdY6-8">
          <mxGeometry x="-0.668" y="-3" relative="1" as="geometry">
            <mxPoint x="-72" y="17" as="offset" />
          </mxGeometry>
        </mxCell>
        <mxCell id="Qny5rL5tvqpMr087GdY6-9" value="" style="endArrow=none;html=1;rounded=0;entryX=0.567;entryY=1;entryDx=0;entryDy=0;entryPerimeter=0;exitX=0.5;exitY=0;exitDx=0;exitDy=0;" parent="1" source="smrWkmQxFFEiix12zCdJ-6" target="smrWkmQxFFEiix12zCdJ-7" edge="1">
          <mxGeometry width="50" height="50" relative="1" as="geometry">
            <mxPoint x="390" y="910" as="sourcePoint" />
            <mxPoint x="440" y="520" as="targetPoint" />
            <Array as="points">
              <mxPoint x="580" y="850" />
              <mxPoint x="520" y="850" />
              <mxPoint x="430" y="850" />
            </Array>
          </mxGeometry>
        </mxCell>
        <mxCell id="NKhzPwcLgmOPMQ6DGNoW-6" value="0..1" style="edgeLabel;html=1;align=center;verticalAlign=middle;resizable=0;points=[];" vertex="1" connectable="0" parent="Qny5rL5tvqpMr087GdY6-9">
          <mxGeometry x="-0.6143" y="-1" relative="1" as="geometry">
            <mxPoint x="84" y="21" as="offset" />
          </mxGeometry>
        </mxCell>
        <mxCell id="NKhzPwcLgmOPMQ6DGNoW-7" value="&lt;p style=&quot;margin:0px;margin-top:4px;text-align:center;&quot;&gt;&lt;b&gt;Avviso&lt;/b&gt;&lt;/p&gt;&lt;hr size=&quot;1&quot;&gt;&lt;p style=&quot;margin:0px;margin-left:4px;&quot;&gt;-testo: String&lt;/p&gt;&lt;hr size=&quot;1&quot;&gt;&lt;p style=&quot;margin:0px;margin-left:4px;&quot;&gt;&lt;br&gt;&lt;/p&gt;" style="verticalAlign=top;align=left;overflow=fill;fontSize=12;fontFamily=Helvetica;html=1;" vertex="1" parent="1">
          <mxGeometry x="332" y="180" width="160" height="60" as="geometry" />
        </mxCell>
        <mxCell id="NKhzPwcLgmOPMQ6DGNoW-8" value="" style="endArrow=open;endSize=12;dashed=1;html=1;rounded=0;entryX=0.5;entryY=1;entryDx=0;entryDy=0;exitX=0.5;exitY=0;exitDx=0;exitDy=0;" edge="1" parent="1" source="smrWkmQxFFEiix12zCdJ-7" target="NKhzPwcLgmOPMQ6DGNoW-7">
          <mxGeometry width="160" relative="1" as="geometry">
            <mxPoint x="360" y="300" as="sourcePoint" />
            <mxPoint x="520" y="300" as="targetPoint" />
          </mxGeometry>
        </mxCell>
      </root>
    </mxGraphModel>
  </diagram>
</mxfile>
